<svg xmlns="http://www.w3.org/2000/svg" width="24" height="28" viewBox="0 0 384 512" fill="#141831">
  <path d="M318.7 268c-.3-36.8 16.4-64.6 50.3-85-19-27.2-47.5-42.2-85.4-45-35.6-2.7-74.7 20.8-89 20.8-15 0-49.7-19.8-77-19.8C61.2 139.4 0 184.6 0 276.7c0 27.1 5 55.2 14.9 84.2 13.2 38.3 60.9 132.5 110.7 130.9 25.6-.6 43.7-18.2 77-18.2 32.3 0 49 18.2 77.4 18.2 50.5-.7 93.6-86.3 106.2-124.7-67.6-31.9-64.5-93.4-64.5-99.1zM260.7 84c25.5-30.3 23.2-57.9 22.5-67.9-22.6 1.3-48.7 15.4-63.5 32.8-16.3 18.7-25.9 41.8-23.8 67.4 24.4 1.9 46.7-10.6 64.8-32.3z"/>
</svg>
